<svg width="24" height="24" viewBox="0 0 24 24" fill="none" xmlns="http://www.w3.org/2000/svg">
	<path d="M12.11 15.39L8.23 19.27C8.00052 19.5004 7.7278 19.6832 7.42749 19.8079C7.12718 19.9327 6.80519 19.9969 6.48 19.9969C6.15482 19.9969 5.83283 19.9327 5.53252 19.8079C5.23221 19.6832 4.95949 19.5004 4.73 19.27C4.4984 19.0412 4.31453 18.7687 4.18903 18.4683C4.06353 18.1679 3.99891 17.8456 3.99891 17.52C3.99891 17.1944 4.06353 16.8721 4.18903 16.5717C4.31453 16.2713 4.4984 15.9988 4.73 15.77L8.61 11.89C8.79831 11.7017 8.9041 11.4463 8.9041 11.18C8.9041 10.9137 8.79831 10.6583 8.61 10.47C8.4217 10.2817 8.16631 10.1759 7.9 10.1759C7.6337 10.1759 7.37831 10.2817 7.19 10.47L3.31 14.36C2.52836 15.2108 2.10562 16.3307 2.13008 17.4857C2.15453 18.6408 2.62429 19.7418 3.44124 20.5588C4.25819 21.3757 5.35917 21.8455 6.51425 21.8699C7.66934 21.8944 8.78921 21.4716 9.64 20.69L13.53 16.81C13.7183 16.6217 13.8241 16.3663 13.8241 16.1C13.8241 15.8337 13.7183 15.5783 13.53 15.39C13.3417 15.2017 13.0863 15.0959 12.82 15.0959C12.5537 15.0959 12.2983 15.2017 12.11 15.39ZM8.83 15.17C8.92344 15.2627 9.03426 15.336 9.1561 15.3858C9.27794 15.4355 9.4084 15.4608 9.54 15.46C9.67161 15.4608 9.80207 15.4355 9.92391 15.3858C10.0457 15.336 10.1566 15.2627 10.25 15.17L15.17 10.25C15.3583 10.0617 15.4641 9.80629 15.4641 9.53999C15.4641 9.27369 15.3583 9.01829 15.17 8.82999C14.9817 8.64169 14.7263 8.5359 14.46 8.5359C14.1937 8.5359 13.9383 8.64169 13.75 8.82999L8.83 13.75C8.73628 13.843 8.66188 13.9536 8.61111 14.0754C8.56034 14.1973 8.53421 14.328 8.53421 14.46C8.53421 14.592 8.56034 14.7227 8.61111 14.8446C8.66188 14.9664 8.73628 15.077 8.83 15.17ZM21 18H20V17C20 16.7348 19.8946 16.4804 19.7071 16.2929C19.5196 16.1053 19.2652 16 19 16C18.7348 16 18.4804 16.1053 18.2929 16.2929C18.1054 16.4804 18 16.7348 18 17V18H17C16.7348 18 16.4804 18.1053 16.2929 18.2929C16.1054 18.4804 16 18.7348 16 19C16 19.2652 16.1054 19.5196 16.2929 19.7071C16.4804 19.8946 16.7348 20 17 20H18V21C18 21.2652 18.1054 21.5196 18.2929 21.7071C18.4804 21.8946 18.7348 22 19 22C19.2652 22 19.5196 21.8946 19.7071 21.7071C19.8946 21.5196 20 21.2652 20 21V20H21C21.2652 20 21.5196 19.8946 21.7071 19.7071C21.8946 19.5196 22 19.2652 22 19C22 18.7348 21.8946 18.4804 21.7071 18.2929C21.5196 18.1053 21.2652 18 21 18ZM16.81 13.53L20.69 9.63999C21.4716 8.7892 21.8944 7.66932 21.8699 6.51424C21.8455 5.35915 21.3757 4.25817 20.5588 3.44122C19.7418 2.62427 18.6408 2.15452 17.4858 2.13006C16.3307 2.10561 15.2108 2.52835 14.36 3.30999L10.47 7.18999C10.3768 7.28323 10.3028 7.39392 10.2523 7.51574C10.2019 7.63756 10.1759 7.76813 10.1759 7.89999C10.1759 8.03185 10.2019 8.16242 10.2523 8.28424C10.3028 8.40606 10.3768 8.51675 10.47 8.60999C10.5632 8.70323 10.6739 8.77719 10.7958 8.82765C10.9176 8.87811 11.0481 8.90408 11.18 8.90408C11.3119 8.90408 11.4424 8.87811 11.5643 8.82765C11.6861 8.77719 11.7968 8.70323 11.89 8.60999L15.77 4.72999C15.9995 4.49959 16.2722 4.31678 16.5725 4.19204C16.8728 4.0673 17.1948 4.00309 17.52 4.00309C17.8452 4.00309 18.1672 4.0673 18.4675 4.19204C18.7678 4.31678 19.0405 4.49959 19.27 4.72999C19.5016 4.9588 19.6855 5.2313 19.811 5.5317C19.9365 5.8321 20.0011 6.15443 20.0011 6.47999C20.0011 6.80555 19.9365 7.12788 19.811 7.42828C19.6855 7.72868 19.5016 8.00118 19.27 8.22999L15.39 12.11C15.2963 12.203 15.2219 12.3136 15.1711 12.4354C15.1203 12.5573 15.0942 12.688 15.0942 12.82C15.0942 12.952 15.1203 13.0827 15.1711 13.2046C15.2219 13.3264 15.2963 13.437 15.39 13.53C15.483 13.6237 15.5936 13.6981 15.7154 13.7489C15.8373 13.7997 15.968 13.8258 16.1 13.8258C16.232 13.8258 16.3627 13.7997 16.4846 13.7489C16.6064 13.6981 16.717 13.6237 16.81 13.53Z" fill="#BBBCCB"/>
</svg>
