<svg width="46" height="46" viewBox="0 0 46 46" fill="none" xmlns="http://www.w3.org/2000/svg">
<circle cx="23" cy="23" r="23" fill="#91E15C"/>
<path d="M28.269 17.2597C27.0124 13.6643 23.2245 11.25 18.8438 11.25C13.4156 11.25 9 15.0345 9 19.6875C9.04567 22.2655 10.3402 24.6607 12.4718 26.1113L11.3097 28.4355C11.1681 28.7121 11.2774 29.051 11.554 29.1926C11.7259 29.2806 11.931 29.2743 12.0971 29.1758L15.0739 27.4737C15.8815 27.7589 16.719 27.9506 17.5703 28.0451C17.8789 28.0807 18.1579 27.8594 18.1935 27.5508C18.2009 27.4863 18.1971 27.421 18.1823 27.3578C18.065 26.8722 18.0039 26.3747 18.0001 25.8751C18.0001 21.5337 22.2897 18.0001 27.5626 18.0001L27.7279 18.0079C27.9108 18.0061 28.0825 17.9202 28.1937 17.7751C28.3015 17.6259 28.3297 17.4335 28.269 17.2597Z" fill="white"/>
<path d="M15.1875 14.625C14.2555 14.625 13.5 15.3806 13.5 16.3125C13.5 17.2445 14.2555 18 15.1875 18C16.1194 18 16.875 17.2445 16.875 16.3125C16.875 15.3806 16.1194 14.625 15.1875 14.625Z" fill="#92E25D"/>
<path d="M21.9375 14.625C21.0055 14.625 20.25 15.3806 20.25 16.3125C20.25 17.2445 21.0055 18 21.9375 18C22.8695 18 23.625 17.2445 23.625 16.3125C23.625 15.3806 22.8695 14.625 21.9375 14.625Z" fill="#92E25D"/>
<path d="M36 25.875C36 22.1524 32.2155 19.125 27.5625 19.125C22.9095 19.125 19.125 22.1524 19.125 25.875C19.125 29.5976 22.9095 32.625 27.5625 32.625C28.4354 32.6247 29.3047 32.5143 30.15 32.2965L32.9389 33.6904C33.2167 33.8295 33.5546 33.717 33.6937 33.4392C33.7657 33.2954 33.7727 33.1276 33.7129 32.9783L32.949 31.0658C34.7746 29.9591 35.9212 28.0084 36 25.875Z" fill="white"/>
<path d="M24.75 22.5C24.1287 22.5 23.625 23.0037 23.625 23.625C23.625 24.2463 24.1287 24.75 24.75 24.75C25.3713 24.75 25.875 24.2463 25.875 23.625C25.875 23.0037 25.3713 22.5 24.75 22.5Z" fill="#92E25D"/>
<path d="M30.375 22.5C29.7537 22.5 29.25 23.0037 29.25 23.625C29.25 24.2463 29.7537 24.75 30.375 24.75C30.9963 24.75 31.5 24.2463 31.5 23.625C31.5 23.0037 30.9963 22.5 30.375 22.5Z" fill="#92E25D"/>
</svg>
