<svg width="46" height="46" viewBox="0 0 46 46" fill="none" xmlns="http://www.w3.org/2000/svg">
<circle cx="23" cy="23" r="23" fill="#4CAF50"/>
<g clip-path="url(#clip0)">
<path d="M31.52 14.449C29.24 12.245 26.24 11 23.045 11C13.875 11 8.117 20.935 12.696 28.838L11 35L17.335 33.348C20.095 34.839 22.356 34.707 23.051 34.795C33.684 34.795 38.977 21.931 31.505 14.488L31.52 14.449Z" fill="white"/>
<path d="M23.067 32.751L23.061 32.75H23.045C19.863 32.75 17.83 31.243 17.63 31.156L13.88 32.131L14.885 28.486L14.646 28.111C13.656 26.535 13.13 24.72 13.13 22.851C13.13 14.058 23.875 9.661 30.093 15.876C36.296 22.026 31.941 32.751 23.067 32.751Z" fill="#4CAF50"/>
<path d="M28.507 25.307L28.498 25.382C28.197 25.232 26.731 24.515 26.458 24.416C25.845 24.189 26.018 24.38 24.841 25.728C24.666 25.923 24.492 25.938 24.195 25.803C23.895 25.653 22.932 25.338 21.792 24.318C20.904 23.523 20.308 22.548 20.132 22.248C19.839 21.742 20.452 21.67 21.01 20.614C21.11 20.404 21.059 20.239 20.985 20.09C20.91 19.94 20.313 18.47 20.063 17.884C19.823 17.3 19.576 17.374 19.391 17.374C18.815 17.324 18.394 17.332 18.023 17.718C16.409 19.492 16.816 21.322 18.197 23.268C20.911 26.82 22.357 27.474 25.001 28.382C25.715 28.609 26.366 28.577 26.881 28.503C27.455 28.412 28.648 27.782 28.897 27.077C29.152 26.372 29.152 25.787 29.077 25.652C29.003 25.517 28.807 25.442 28.507 25.307Z" fill="white"/>
</g>
<defs>
<clipPath id="clip0">
<rect width="24" height="24" fill="white" transform="translate(11 11)"/>
</clipPath>
</defs>
</svg>
